<svg width="22" height="22" viewBox="0 0 22 22" fill="none" xmlns="http://www.w3.org/2000/svg">
<path id="Vector" d="M2.44444 22L0 7.33333H22L19.5556 22H2.44444ZM8.55556 14.6667H13.4444C13.7907 14.6667 14.0812 14.5493 14.3159 14.3147C14.5506 14.08 14.6675 13.7899 14.6667 13.4444C14.6667 13.0981 14.5493 12.8081 14.3147 12.5742C14.08 12.3404 13.7899 12.223 13.4444 12.2222H8.55556C8.20926 12.2222 7.91919 12.3396 7.68533 12.5742C7.45148 12.8089 7.33415 13.099 7.33333 13.4444C7.33333 13.7907 7.45067 14.0812 7.68533 14.3159C7.92 14.5506 8.21007 14.6675 8.55556 14.6667ZM3.66667 6.11111C3.32037 6.11111 3.0303 5.99378 2.79644 5.75911C2.56259 5.52444 2.44526 5.23437 2.44444 4.88889C2.44444 4.54259 2.56178 4.25252 2.79644 4.01867C3.03111 3.78481 3.32119 3.66748 3.66667 3.66667H18.3333C18.6796 3.66667 18.9701 3.784 19.2048 4.01867C19.4394 4.25333 19.5564 4.54341 19.5556 4.88889C19.5556 5.23519 19.4382 5.52567 19.2036 5.76033C18.9689 5.995 18.6788 6.11193 18.3333 6.11111H3.66667ZM6.11111 2.44444C5.76481 2.44444 5.47474 2.32711 5.24089 2.09244C5.00704 1.85778 4.8897 1.5677 4.88889 1.22222C4.88889 0.875926 5.00622 0.585852 5.24089 0.352C5.47556 0.118148 5.76563 0.000814815 6.11111 0H15.8889C16.2352 0 16.5257 0.117333 16.7603 0.352C16.995 0.586667 17.1119 0.876741 17.1111 1.22222C17.1111 1.56852 16.9938 1.859 16.7591 2.09367C16.5244 2.32833 16.2344 2.44526 15.8889 2.44444H6.11111Z" fill="#1E2843"/>
</svg>
