<svg xmlns="http://www.w3.org/2000/svg" width="24" height="25" viewBox="0 0 24 25" fill="none">
  <path d="M20.0307 10.2508L12.5307 17.7508C12.4611 17.8206 12.3784 17.8759 12.2873 17.9136C12.1963 17.9514 12.0987 17.9708 12.0001 17.9708C11.9015 17.9708 11.8039 17.9514 11.7129 17.9136C11.6218 17.8759 11.5391 17.8206 11.4695 17.7508L3.96948 10.2508C3.86447 10.1459 3.79294 10.0123 3.76396 9.8667C3.73497 9.72113 3.74982 9.57024 3.80664 9.43312C3.86345 9.296 3.95967 9.17883 4.08312 9.09642C4.20656 9.01402 4.35168 8.9701 4.5001 8.97022H19.5001C19.6485 8.9701 19.7936 9.01402 19.9171 9.09642C20.0405 9.17883 20.1368 9.296 20.1936 9.43312C20.2504 9.57024 20.2652 9.72113 20.2363 9.8667C20.2073 10.0123 20.1357 10.1459 20.0307 10.2508Z" fill="#212529"/>
</svg>