<svg xmlns="http://www.w3.org/2000/svg" width="24" height="25" viewBox="0 0 24 25" fill="none">
  <path d="M2 22.9502V4.9502C2 4.4002 2.196 3.92953 2.588 3.5382C2.98 3.14686 3.45067 2.95086 4 2.9502H20C20.55 2.9502 21.021 3.1462 21.413 3.5382C21.805 3.9302 22.0007 4.40086 22 4.9502V16.9502C22 17.5002 21.8043 17.9712 21.413 18.3632C21.0217 18.7552 20.5507 18.9509 20 18.9502H6L2 22.9502ZM9.075 15.2002L12 13.4252L14.925 15.2002L14.15 11.8752L16.75 9.6252L13.325 9.35019L12 6.2002L10.675 9.35019L7.25 9.6252L9.85 11.8752L9.075 15.2002Z" fill="#DEE2E6"/>
</svg>