<svg xmlns="http://www.w3.org/2000/svg" width="24" height="22" viewBox="0 0 24 22" fill="none">
  <path d="M20.0307 12.8609L12.5307 6.2984C12.4611 6.23738 12.3784 6.18898 12.2873 6.15595C12.1963 6.12293 12.0987 6.10593 12.0001 6.10593C11.9015 6.10593 11.8039 6.12293 11.7129 6.15595C11.6218 6.18898 11.5391 6.23738 11.4695 6.2984L3.96948 12.8609C3.86447 12.9527 3.79294 13.0697 3.76396 13.197C3.73497 13.3244 3.74982 13.4564 3.80664 13.5764C3.86345 13.6964 3.95967 13.7989 4.08312 13.871C4.20656 13.9431 4.35168 13.9815 4.5001 13.9814H19.5001C19.6485 13.9815 19.7936 13.9431 19.9171 13.871C20.0405 13.7989 20.1368 13.6964 20.1936 13.5764C20.2504 13.4564 20.2652 13.3244 20.2362 13.197C20.2073 13.0697 20.1357 12.9527 20.0307 12.8609Z" fill="#212529"/>
</svg>