<svg width="22" height="19" viewBox="0 0 22 19" fill="none" xmlns="http://www.w3.org/2000/svg">
<path d="M2.74995 17.75C2.53328 17.5333 2.42495 17.2833 2.42495 17C2.42495 16.7167 2.53328 16.4667 2.74995 16.25L8.79995 10.2C8.89995 10.1 9.00828 10.029 9.12495 9.987C9.24162 9.94566 9.36662 9.925 9.49995 9.925C9.63328 9.925 9.75828 9.94566 9.87495 9.987C9.99162 10.029 10.1 10.1 10.2 10.2L13.5 13.5L19.9 6.3C20.0833 6.08333 20.321 5.975 20.613 5.975C20.9043 5.975 21.15 6.075 21.35 6.275C21.5333 6.45833 21.6293 6.67933 21.638 6.938C21.646 7.196 21.5583 7.425 21.375 7.625L14.2 15.7C14.1 15.8167 13.9876 15.904 13.863 15.962C13.7376 16.0207 13.6083 16.05 13.475 16.05C13.3416 16.05 13.2126 16.025 13.088 15.975C12.9626 15.925 12.85 15.85 12.75 15.75L9.49995 12.5L4.24995 17.75C4.03328 17.9667 3.78328 18.075 3.49995 18.075C3.21662 18.075 2.96662 17.9667 2.74995 17.75ZM2.99995 11.3C2.91662 11.3 2.83328 11.279 2.74995 11.237C2.66662 11.1957 2.59995 11.125 2.54995 11.025L2.04995 9.95L0.974951 9.45C0.874951 9.4 0.804284 9.33333 0.762951 9.25C0.720951 9.16666 0.699951 9.08333 0.699951 9C0.699951 8.91666 0.720951 8.83333 0.762951 8.75C0.804284 8.66666 0.874951 8.6 0.974951 8.55L2.04995 8.05L2.54995 6.975C2.59995 6.875 2.66662 6.804 2.74995 6.762C2.83328 6.72066 2.91662 6.7 2.99995 6.7C3.08328 6.7 3.16662 6.72066 3.24995 6.762C3.33328 6.804 3.39995 6.875 3.44995 6.975L3.94995 8.05L5.02495 8.55C5.20828 8.63333 5.29995 8.78333 5.29995 9C5.29995 9.21666 5.20828 9.36666 5.02495 9.45L3.94995 9.95L3.44995 11.025C3.39995 11.125 3.33328 11.1957 3.24995 11.237C3.16662 11.279 3.08328 11.3 2.99995 11.3ZM14 9.3C13.9166 9.3 13.8333 9.279 13.75 9.237C13.6666 9.19566 13.6 9.125 13.55 9.025L13.05 7.95L11.975 7.45C11.875 7.4 11.8043 7.33333 11.763 7.25C11.721 7.16666 11.7 7.08333 11.7 7C11.7 6.91666 11.721 6.83333 11.763 6.75C11.8043 6.66666 11.875 6.6 11.975 6.55L13.05 6.05L13.55 4.975C13.6 4.875 13.6666 4.804 13.75 4.762C13.8333 4.72066 13.9166 4.7 14 4.7C14.0833 4.7 14.1666 4.72066 14.25 4.762C14.3333 4.804 14.4 4.875 14.45 4.975L14.95 6.05L16.025 6.55C16.125 6.6 16.196 6.66666 16.238 6.75C16.2793 6.83333 16.3 6.91666 16.3 7C16.3 7.08333 16.2793 7.16666 16.238 7.25C16.196 7.33333 16.125 7.4 16.025 7.45L14.95 7.95L14.45 9.025C14.4 9.125 14.3333 9.19566 14.25 9.237C14.1666 9.279 14.0833 9.3 14 9.3ZM7.49995 6.3C7.41662 6.3 7.33328 6.275 7.24995 6.225C7.16662 6.175 7.09995 6.1 7.04995 6L6.39995 4.6L4.99995 3.95C4.89995 3.9 4.82495 3.83333 4.77495 3.75C4.72495 3.66666 4.69995 3.58333 4.69995 3.5C4.69995 3.41666 4.72495 3.33333 4.77495 3.25C4.82495 3.16666 4.89995 3.1 4.99995 3.05L6.39995 2.4L7.04995 0.999997C7.09995 0.899997 7.16662 0.824997 7.24995 0.774997C7.33328 0.724997 7.41662 0.699997 7.49995 0.699997C7.58328 0.699997 7.66662 0.724997 7.74995 0.774997C7.83328 0.824997 7.89995 0.899997 7.94995 0.999997L8.59995 2.4L9.99995 3.05C10.1 3.1 10.175 3.16666 10.225 3.25C10.275 3.33333 10.3 3.41666 10.3 3.5C10.3 3.58333 10.275 3.66666 10.225 3.75C10.175 3.83333 10.1 3.9 9.99995 3.95L8.59995 4.6L7.94995 6C7.89995 6.1 7.83328 6.175 7.74995 6.225C7.66662 6.275 7.58328 6.3 7.49995 6.3Z" fill="#1E2843"/>
</svg>
