<svg width="25" height="28" viewBox="0 0 25 28" fill="none" xmlns="http://www.w3.org/2000/svg">
<path d="M12.7167 16.766C12.3369 16.766 12.0187 16.6373 11.7623 16.3799C11.5049 16.1234 11.3762 15.8053 11.3762 15.4255C11.3762 15.0457 11.5049 14.7272 11.7623 14.4698C12.0187 14.2133 12.3369 14.0851 12.7167 14.0851C13.0964 14.0851 13.415 14.2133 13.6724 14.4698C13.9289 14.7272 14.0571 15.0457 14.0571 15.4255C14.0571 15.8053 13.9289 16.1234 13.6724 16.3799C13.415 16.6373 13.0964 16.766 12.7167 16.766ZM7.35496 16.766C6.97517 16.766 6.6566 16.6373 6.39924 16.3799C6.14277 16.1234 6.01453 15.8053 6.01453 15.4255C6.01453 15.0457 6.14277 14.7272 6.39924 14.4698C6.6566 14.2133 6.97517 14.0851 7.35496 14.0851C7.73475 14.0851 8.05332 14.2133 8.31068 14.4698C8.56715 14.7272 8.69538 15.0457 8.69538 15.4255C8.69538 15.8053 8.56715 16.1234 8.31068 16.3799C8.05332 16.6373 7.73475 16.766 7.35496 16.766ZM18.0784 16.766C17.6986 16.766 17.3804 16.6373 17.124 16.3799C16.8666 16.1234 16.7379 15.8053 16.7379 15.4255C16.7379 15.0457 16.8666 14.7272 17.124 14.4698C17.3804 14.2133 17.6986 14.0851 18.0784 14.0851C18.4582 14.0851 18.7763 14.2133 19.0327 14.4698C19.2901 14.7272 19.4188 15.0457 19.4188 15.4255C19.4188 15.8053 19.2901 16.1234 19.0327 16.3799C18.7763 16.6373 18.4582 16.766 18.0784 16.766ZM12.7167 22.1277C12.3369 22.1277 12.0187 21.999 11.7623 21.7416C11.5049 21.4851 11.3762 21.167 11.3762 20.7872C11.3762 20.4074 11.5049 20.0893 11.7623 19.8328C12.0187 19.5755 12.3369 19.4468 12.7167 19.4468C13.0964 19.4468 13.415 19.5755 13.6724 19.8328C13.9289 20.0893 14.0571 20.4074 14.0571 20.7872C14.0571 21.167 13.9289 21.4851 13.6724 21.7416C13.415 21.999 13.0964 22.1277 12.7167 22.1277ZM7.35496 22.1277C6.97517 22.1277 6.6566 21.999 6.39924 21.7416C6.14277 21.4851 6.01453 21.167 6.01453 20.7872C6.01453 20.4074 6.14277 20.0893 6.39924 19.8328C6.6566 19.5755 6.97517 19.4468 7.35496 19.4468C7.73475 19.4468 8.05332 19.5755 8.31068 19.8328C8.56715 20.0893 8.69538 20.4074 8.69538 20.7872C8.69538 21.167 8.56715 21.4851 8.31068 21.7416C8.05332 21.999 7.73475 22.1277 7.35496 22.1277ZM18.0784 22.1277C17.6986 22.1277 17.3804 21.999 17.124 21.7416C16.8666 21.4851 16.7379 21.167 16.7379 20.7872C16.7379 20.4074 16.8666 20.0893 17.124 19.8328C17.3804 19.5755 17.6986 19.4468 18.0784 19.4468C18.4582 19.4468 18.7763 19.5755 19.0327 19.8328C19.2901 20.0893 19.4188 20.4074 19.4188 20.7872C19.4188 21.167 19.2901 21.4851 19.0327 21.7416C18.7763 21.999 18.4582 22.1277 18.0784 22.1277ZM3.33368 27.4894C2.59645 27.4894 1.96511 27.2271 1.43966 26.7025C0.915108 26.1771 0.652832 25.5457 0.652832 24.8085V6.04255C0.652832 5.30532 0.915108 4.67442 1.43966 4.14987C1.96511 3.62442 2.59645 3.3617 3.33368 3.3617H4.67411V2.02127C4.67411 1.64149 4.80234 1.32291 5.05881 1.06555C5.31617 0.809081 5.63475 0.680847 6.01453 0.680847C6.39432 0.680847 6.7129 0.809081 6.97026 1.06555C7.22673 1.32291 7.35496 1.64149 7.35496 2.02127V3.3617H18.0784V2.02127C18.0784 1.64149 18.207 1.32291 18.4644 1.06555C18.7209 0.809081 19.039 0.680847 19.4188 0.680847C19.7986 0.680847 20.1167 0.809081 20.3732 1.06555C20.6305 1.32291 20.7592 1.64149 20.7592 2.02127V3.3617H22.0996C22.8369 3.3617 23.4682 3.62442 23.9937 4.14987C24.5182 4.67442 24.7805 5.30532 24.7805 6.04255V24.8085C24.7805 25.5457 24.5182 26.1771 23.9937 26.7025C23.4682 27.2271 22.8369 27.4894 22.0996 27.4894H3.33368ZM3.33368 24.8085H22.0996V11.4043H3.33368V24.8085Z" fill="white"/>
</svg>
