<svg xmlns="http://www.w3.org/2000/svg" width="28" height="27" viewBox="0 0 28 27" fill="none">
<path d="M0.207153 19.1787V2.02127C0.207153 1.64149 0.335834 1.32291 0.593196 1.06555C0.849664 0.809081 1.16779 0.680847 1.54758 0.680847H18.9731C19.3529 0.680847 19.671 0.809081 19.9275 1.06555C20.1849 1.32291 20.3135 1.64149 20.3135 2.02127V14.0851C20.3135 14.4649 20.1849 14.783 19.9275 15.0395C19.671 15.2968 19.3529 15.4255 18.9731 15.4255H5.56886L1.34651 19.6479C1.14545 19.8489 0.905068 19.899 0.625366 19.798C0.346558 19.6979 0.207153 19.4915 0.207153 19.1787ZM6.90928 22.1277C6.52949 22.1277 6.21092 21.999 5.95356 21.7416C5.69709 21.4851 5.56886 21.167 5.56886 20.7872V18.1064H22.9944V6.04255H25.6752C26.055 6.04255 26.3732 6.17078 26.6296 6.42725C26.887 6.68461 27.0157 7.00319 27.0157 7.38298V25.8808C27.0157 26.1936 26.8763 26.4 26.5975 26.5001C26.3178 26.6011 26.0774 26.5511 25.8763 26.35L21.654 22.1277H6.90928Z" fill="white"/>
</svg>