<svg width="25" height="29" viewBox="0 0 25 29" fill="none" xmlns="http://www.w3.org/2000/svg">
<path d="M12.4536 28.4894C12.4536 25.4287 13.4477 22.7702 15.436 20.5138C17.4243 18.2574 19.8929 16.9282 22.8419 16.5261C23.2887 16.459 23.6796 16.5931 24.0147 16.9282C24.3498 17.2633 24.4839 17.6543 24.4169 18.1011C24.0147 21.05 22.6855 23.5186 20.4291 25.5069C18.1727 27.4952 15.5142 28.4894 12.4536 28.4894ZM12.4536 28.4894C12.4536 25.4287 11.4594 22.7702 9.47112 20.5138C7.48282 18.2574 5.0142 16.9282 2.06527 16.5261C1.61846 16.459 1.2275 16.5931 0.892394 16.9282C0.557287 17.2633 0.423245 17.6543 0.490266 18.1011C0.892394 21.05 2.22165 23.5186 4.47803 25.5069C6.73442 27.4952 9.39293 28.4894 12.4536 28.4894ZM12.4536 13.0745C13.3919 13.0745 14.1849 12.7505 14.8328 12.1027C15.4807 11.4548 15.8046 10.6617 15.8046 9.7234C15.8046 8.7851 15.4807 7.99202 14.8328 7.34415C14.1849 6.69627 13.3919 6.37234 12.4536 6.37234C11.5153 6.37234 10.7222 6.69627 10.0743 7.34415C9.42644 7.99202 9.1025 8.7851 9.1025 9.7234C9.1025 10.6617 9.42644 11.4548 10.0743 12.1027C10.7222 12.7505 11.5153 13.0745 12.4536 13.0745ZM12.4536 19.1064C11.5823 19.1064 10.795 18.866 10.0917 18.3852C9.38756 17.9054 8.8791 17.2745 8.56633 16.4926C8.45463 16.4926 8.3541 16.4979 8.26473 16.5086C8.17537 16.5203 8.07484 16.5261 7.96314 16.5261C6.80144 16.5261 5.80729 16.1128 4.98069 15.2862C4.1541 14.4596 3.7408 13.4654 3.7408 12.3037C3.7408 11.8346 3.81899 11.382 3.97537 10.9459C4.13176 10.5107 4.36633 10.1032 4.6791 9.7234C4.38867 9.34361 4.16527 8.93568 4.00888 8.49959C3.8525 8.0644 3.77431 7.61223 3.77431 7.14308C3.77431 5.98138 4.18225 4.98723 4.99812 4.16064C5.8131 3.33404 6.80144 2.92074 7.96314 2.92074C8.07484 2.92074 8.17537 2.9261 8.26473 2.93683C8.3541 2.94844 8.45463 2.95425 8.56633 2.95425C8.8791 2.17234 9.38756 1.541 10.0917 1.06023C10.795 0.58036 11.5823 0.340424 12.4536 0.340424C13.3248 0.340424 14.1126 0.58036 14.8167 1.06023C15.52 1.541 16.028 2.17234 16.3408 2.95425C16.4525 2.95425 16.553 2.94844 16.6424 2.93683C16.7318 2.9261 16.8323 2.92074 16.944 2.92074C18.1057 2.92074 19.094 3.33404 19.909 4.16064C20.7249 4.98723 21.1328 5.98138 21.1328 7.14308C21.1328 7.61223 21.06 8.0644 20.9143 8.49959C20.7696 8.93568 20.5408 9.34361 20.228 9.7234C20.5185 10.1032 20.7419 10.5107 20.8982 10.9459C21.0546 11.382 21.1328 11.8346 21.1328 12.3037C21.1328 13.4654 20.7249 14.4596 19.909 15.2862C19.094 16.1128 18.1057 16.5261 16.944 16.5261C16.8323 16.5261 16.7318 16.5203 16.6424 16.5086C16.553 16.4979 16.4525 16.4926 16.3408 16.4926C16.028 17.2745 15.52 17.9054 14.8167 18.3852C14.1126 18.866 13.3248 19.1064 12.4536 19.1064Z" fill="white"/>
</svg>
