<svg width="25" height="25" viewBox="0 0 25 25" fill="none" xmlns="http://www.w3.org/2000/svg">
<path d="M20.4529 23.7415L14.5216 17.8101L17.3365 14.9952L23.2678 20.9266C23.6476 21.3064 23.8375 21.7755 23.8375 22.3341C23.8375 22.8926 23.6476 23.3617 23.2678 23.7415C22.8881 24.1213 22.4189 24.3112 21.8604 24.3112C21.3019 24.3112 20.8327 24.1213 20.4529 23.7415ZM1.95507 23.7415C1.57529 23.3617 1.38539 22.8926 1.38539 22.3341C1.38539 21.7755 1.57529 21.3064 1.95507 20.9266L9.79656 13.0851L7.51784 10.8064C7.22741 11.0968 6.90348 11.2309 6.54603 11.2085C6.18858 11.1862 5.88699 11.0521 5.64124 10.8064L4.8705 10.0357V12.7835L4.63592 13.0181C4.43486 13.2192 4.20029 13.3197 3.9322 13.3197C3.66412 13.3197 3.42954 13.2192 3.22848 13.0181L0.581137 10.3708C0.380073 10.1697 0.279541 9.93512 0.279541 9.66703C0.279541 9.39895 0.380073 9.16437 0.581137 8.96331L0.815711 8.72874H3.56358L2.82635 7.9915C2.55826 7.72342 2.42422 7.41065 2.42422 7.0532C2.42422 6.69576 2.55826 6.38299 2.82635 6.11491L6.64656 2.29469C7.09337 1.84788 7.57369 1.52395 8.08752 1.32288C8.60135 1.12182 9.12635 1.02129 9.66252 1.02129C10.1987 1.02129 10.7237 1.12182 11.2375 1.32288C11.7513 1.52395 12.2317 1.84788 12.6785 2.29469L9.5955 5.37767L10.3327 6.11491C10.5785 6.36065 10.7125 6.66225 10.7349 7.01969C10.7572 7.37714 10.6232 7.70108 10.3327 7.9915L12.6115 10.2702L15.6274 7.25427C15.5381 7.00852 15.4657 6.75161 15.4103 6.48352C15.354 6.21544 15.3258 5.94735 15.3258 5.67927C15.3258 4.36118 15.7784 3.24952 16.6837 2.34429C17.588 1.43995 18.6992 0.987778 20.0173 0.987778C20.3524 0.987778 20.671 1.02129 20.973 1.08831C21.2742 1.15533 21.5811 1.25586 21.8939 1.38991L18.5763 4.70746L20.9891 7.12023L24.3067 3.80267C24.4631 4.11544 24.5694 4.4224 24.6257 4.72354C24.6811 5.02559 24.7088 5.34416 24.7088 5.67927C24.7088 6.99735 24.2566 8.10857 23.3523 9.01291C22.4471 9.91814 21.3354 10.3708 20.0173 10.3708C19.7492 10.3708 19.4811 10.3484 19.213 10.3037C18.945 10.2591 18.6881 10.1809 18.4423 10.0692L4.76997 23.7415C4.39018 24.1213 3.92103 24.3112 3.36252 24.3112C2.80401 24.3112 2.33486 24.1213 1.95507 23.7415Z" fill="white"/>
</svg>
